<svg xmlns="http://www.w3.org/2000/svg" x="0px" y="0px" width="40" height="40" viewBox="0 0 172 172" style="fill:#000"><g fill="none" fill-rule="nonzero" stroke="none" stroke-width="1" stroke-linecap="butt" stroke-linejoin="miter" stroke-miterlimit="10" stroke-dasharray="" stroke-dashoffset="0" font-family="none" font-weight="none" font-size="none" text-anchor="none" style="mix-blend-mode:normal"><path d="M0,172v-172h172v172z" fill="none"></path><g fill="#3498db"><path d="M30.96,13.76c-9.45834,0 -17.2,7.74166 -17.2,17.2v110.08c0,9.45834 7.74166,17.2 17.2,17.2h110.08c9.45834,0 17.2,-7.74166 17.2,-17.2v-110.08c0,-9.45834 -7.74166,-17.2 -17.2,-17.2zM30.96,20.64h22.63547c-12.28454,12.78196 -19.19547,29.30221 -19.19547,46.44c0,17.7504 7.25894,34.74346 20.33094,47.60906c0.4128,0.7224 0.756,4.26452 -0.8264,8.35812c-0.9976,2.58 -2.99361,5.94986 -6.8464,7.22266c-1.4792,0.4816 -2.44133,1.93231 -2.33813,3.48031c0.1032,1.548 1.24109,2.85493 2.75469,3.16453c9.8728,1.9608 16.2661,-1.00002 21.4261,-3.33922c4.644,-2.1328 7.71017,-3.57921 12.42297,-1.65281c9.632,3.7496 19.88105,5.67735 30.47625,5.67735c14.08228,0 27.62822,-3.43749 39.56,-9.93031v13.37031c0,5.73958 -4.58042,10.32 -10.32,10.32h-110.08c-5.73958,0 -10.32,-4.58042 -10.32,-10.32v-110.08c0,-5.73958 4.58042,-10.32 10.32,-10.32zM113.52,51.6c1.892,0 3.44,1.548 3.44,3.44v30.96c0,1.892 -1.548,3.44 -3.44,3.44c-1.892,0 -3.44,-1.548 -3.44,-3.44v-30.96c0,-1.892 1.548,-3.44 3.44,-3.44zM61.92,55.04h17.2c1.2384,0 2.41095,0.68639 3.03015,1.78719c0.5848,1.0664 0.5461,2.4072 -0.1075,3.4736l-13.92797,22.25922h11.00531c1.892,0 3.44,1.548 3.44,3.44c0,1.892 -1.548,3.44 -3.44,3.44h-17.2c-1.2384,0 -2.41095,-0.68639 -3.03015,-1.78719c-0.5848,-1.0664 -0.5461,-2.4072 0.1075,-3.4736l13.92797,-22.25922h-11.00531c-1.892,0 -3.44,-1.548 -3.44,-3.44c0,-1.892 1.548,-3.44 3.44,-3.44zM94.6,65.36c2.0984,0 4.05732,0.58211 5.81172,1.54531c0.6192,-0.8944 1.58428,-1.54531 2.78828,-1.54531c1.892,0 3.44,1.548 3.44,3.44v17.2c0,1.892 -1.548,3.44 -3.44,3.44c-1.204,0 -2.16908,-0.65091 -2.78828,-1.54531c-1.7544,0.9632 -3.71332,1.54531 -5.81172,1.54531c-6.6392,0 -12.04,-5.4008 -12.04,-12.04c0,-6.6392 5.4008,-12.04 12.04,-12.04zM132.44,65.36c6.6392,0 12.04,5.4008 12.04,12.04c0,6.6392 -5.4008,12.04 -12.04,12.04c-6.6392,0 -12.04,-5.4008 -12.04,-12.04c0,-6.6392 5.4008,-12.04 12.04,-12.04zM94.6,72.24c-0.3569,0 -0.70513,0.0389 -1.0414,0.1075c-0.67255,0.1372 -1.29873,0.40218 -1.84766,0.77265c-0.54892,0.37047 -1.02031,0.84186 -1.39078,1.39078c-0.37047,0.54892 -0.63546,1.17511 -0.77265,1.84766c-0.0686,0.33627 -0.1075,0.6845 -0.1075,1.0414c0,0.3569 0.0389,0.70513 0.1075,1.0414c0.0686,0.33627 0.16528,0.65871 0.29563,0.9675c0.13034,0.3088 0.29179,0.6057 0.47703,0.88016c0.18524,0.27446 0.39829,0.52594 0.63156,0.75922c0.23328,0.23327 0.48476,0.44633 0.75922,0.63156c0.54892,0.37047 1.17511,0.63546 1.84766,0.77265c0.33627,0.0686 0.6845,0.1075 1.0414,0.1075c0.3569,0 0.70513,-0.0389 1.0414,-0.1075c2.35392,-0.48019 4.1186,-2.5542 4.1186,-5.0525c0,-2.8552 -2.3048,-5.16 -5.16,-5.16zM132.44,72.24c-0.3569,0 -0.70513,0.0389 -1.0414,0.1075c-0.33627,0.0686 -0.65871,0.16528 -0.9675,0.29563c-0.3088,0.13034 -0.6057,0.29179 -0.88016,0.47703c-0.27446,0.18524 -0.52594,0.39829 -0.75922,0.63156c-0.46655,0.46655 -0.8479,1.02179 -1.10859,1.63938c-0.13035,0.30879 -0.22703,0.63123 -0.29563,0.9675c-0.0686,0.33627 -0.1075,0.6845 -0.1075,1.0414c0,0.3569 0.0389,0.70513 0.1075,1.0414c0.0686,0.33627 0.16528,0.65871 0.29563,0.9675c0.13034,0.3088 0.29179,0.6057 0.47703,0.88016c0.18524,0.27446 0.39829,0.52594 0.63156,0.75922c0.23328,0.23327 0.48476,0.44633 0.75922,0.63156c0.27446,0.18523 0.57136,0.34669 0.88016,0.47703c0.30879,0.13035 0.63123,0.22703 0.9675,0.29563c0.33627,0.0686 0.6845,0.1075 1.0414,0.1075c0.3569,0 0.70513,-0.0389 1.0414,-0.1075c2.35392,-0.48019 4.1186,-2.5542 4.1186,-5.0525c0,-2.8552 -2.3048,-5.16 -5.16,-5.16z"></path></g></g></svg>